<?xml version="1.0" encoding="utf-8"?>
<!-- Generator: Adobe Illustrator 16.0.0, SVG Export Plug-In . SVG Version: 6.00 Build 0)  -->
<!DOCTYPE svg PUBLIC "-//W3C//DTD SVG 1.1//EN" "http://www.w3.org/Graphics/SVG/1.1/DTD/svg11.dtd">
<svg version="1.1" id="Layer_1" xmlns="http://www.w3.org/2000/svg" xmlns:xlink="http://www.w3.org/1999/xlink" x="0px" y="0px"
	 width="80px" height="80px" viewBox="0 0 80 80" enable-background="new 0 0 80 80" xml:space="preserve">
<g>
	<g>
		<defs>
			<rect id="SVGID_1_" y="1.387" width="115.821" height="77.227"/>
		</defs>
		<clipPath id="SVGID_2_">
			<use xlink:href="#SVGID_1_"  overflow="visible"/>
		</clipPath>
		<circle clip-path="url(#SVGID_2_)" fill="none" stroke="#231F20" stroke-width="0.495" cx="39.962" cy="40" r="38.41"/>
	</g>
	<g>
		<path fill="#231F20" d="M16.307,30.026c3.209,0,5.584,0.657,7.151,2.148c1.238,1.213,2.123,3.058,2.123,5.433
			c0,3.032-1.163,5.281-3.108,6.747c-1.895,1.465-4.396,2.097-7.505,2.097H8.979v-0.682c2.173-0.152,2.375-0.303,2.375-2.451V33.185
			c0-2.173-0.202-2.274-2.147-2.426v-0.733H16.307z M13.528,43.141c0,1.92,0.833,2.4,2.678,2.4c4.726,0,6.898-3.538,6.898-7.581
			c0-2.603-0.96-4.852-2.981-6.039c-1.137-0.733-2.603-1.036-4.296-1.036c-1.062,0-1.718,0.126-1.971,0.303
			c-0.253,0.177-0.329,0.455-0.329,1.44V43.141z"/>
	</g>
	<line fill="none" stroke="#231F20" stroke-width="0.643" x1="29.135" y1="23.327" x2="29.135" y2="56.674"/>
	<line fill="none" stroke="#231F20" stroke-width="0.643" x1="51.169" y1="23.327" x2="51.169" y2="56.674"/>
	<g>
		<path fill="#231F20" d="M62.052,29.852c3.209,0,5.584,0.657,7.15,2.147c1.238,1.213,2.123,3.058,2.123,5.433
			c0,3.032-1.162,5.281-3.107,6.747c-1.896,1.465-4.396,2.097-7.506,2.097h-5.988v-0.682c2.174-0.152,2.375-0.303,2.375-2.451V33.01
			c0-2.173-0.201-2.274-2.146-2.426v-0.732H62.052z M59.272,42.966c0,1.92,0.834,2.4,2.678,2.4c4.727,0,6.898-3.538,6.898-7.581
			c0-2.603-0.959-4.852-2.98-6.039c-1.139-0.733-2.604-1.036-4.297-1.036c-1.061,0-1.719,0.126-1.971,0.303s-0.328,0.455-0.328,1.44
			V42.966z"/>
	</g>
	<g>
		<path fill="#231F20" d="M41.714,37.432c2.502,0.379,4.473,1.491,4.473,4.018c0,1.693-0.934,2.981-2.426,3.815
			c-1.287,0.708-2.955,1.011-4.951,1.011h-5.585v-0.708c2.173-0.151,2.325-0.303,2.325-2.426V32.959
			c0-2.097-0.101-2.249-2.123-2.401v-0.707h6.494c1.894,0,3.005,0.303,3.791,0.859c0.908,0.606,1.414,1.718,1.414,2.88
			c0,2.401-1.996,3.386-3.412,3.765V37.432z M38.861,37.129c2.779,0,3.941-1.112,3.941-3.234c0-1.719-0.961-3.234-3.361-3.234
			c-0.631,0-1.188,0.101-1.439,0.252c-0.229,0.152-0.33,0.43-0.33,1.263v4.953H38.861z M37.671,43.117c0,1.819,0.48,2.3,2.098,2.3
			c2.072-0.025,3.917-1.087,3.917-3.715c0-2.603-1.77-3.74-4.851-3.74h-1.164V43.117z"/>
	</g>
</g>
</svg>
